<svg width="25" height="24" viewBox="0 0 25 24" fill="none" xmlns="http://www.w3.org/2000/svg">
<path fill-rule="evenodd" clip-rule="evenodd" d="M4.81408 17.8406C4.99143 17.8406 5.18567 17.7886 5.38835 17.6586V8.54246C5.38835 8.04853 5.4728 7.89255 5.88661 7.64991L13.597 3.09185C13.5885 2.40728 13.1578 2 12.592 2C12.3218 2 12.0346 2.08666 11.7306 2.25997L4.7803 6.36742C3.87668 6.90468 3.75 7.10399 3.75 8.19584V16.3501C3.75 17.234 4.17226 17.8406 4.81408 17.8406ZM8.23435 19.8683C8.4117 19.8683 8.61438 19.8163 8.80862 19.6863V10.5615C8.80862 10.0589 8.88462 9.92894 9.30688 9.67764L17.0173 5.11958C17.0173 4.43501 16.5866 4.02773 16.0038 4.02773C15.7421 4.02773 15.4549 4.10572 15.1509 4.27903L8.19213 8.39515C7.2885 8.92374 7.16182 9.14038 7.16182 10.2236V18.3778C7.16182 19.2704 7.60941 19.8683 8.23435 19.8683ZM11.8657 22C12.1867 22 12.5836 21.87 13.0227 21.6101L19.6015 17.7279C20.4629 17.2166 20.75 16.7574 20.75 15.6915L20.7416 7.90121C20.7416 6.75737 20.3109 6.15078 19.593 6.15078C19.2721 6.15078 18.8921 6.28076 18.4614 6.53206L11.8742 10.4315C10.9875 10.9601 10.7257 11.4194 10.7257 12.4679V20.2582C10.7257 21.3761 11.1395 22 11.8657 22ZM12.44 19.9463C12.3893 19.9376 12.3809 19.9116 12.3809 19.851L12.4485 12.5373C12.4485 12.234 12.5329 12.078 12.7863 11.922L18.9343 8.21317C18.9596 8.19584 18.985 8.18717 19.0188 8.19584C19.0525 8.19584 19.0779 8.2305 19.0779 8.29116L19.0356 15.6308C19.0356 15.8908 18.9512 16.0901 18.6978 16.2374L12.5245 19.9289C12.4907 19.9463 12.4654 19.9549 12.44 19.9463Z" fill="#1A1A1A"/>
</svg>
