<svg width="25" height="24" viewBox="0 0 25 24" fill="none" xmlns="http://www.w3.org/2000/svg">
<path fill-rule="evenodd" clip-rule="evenodd" d="M12.25 21C12.4615 21 12.7636 20.8627 12.9851 20.7353C18.6548 17.2059 22.25 13.098 22.25 8.92157C22.25 5.45098 19.8029 3 16.54 3C14.677 3 13.1664 3.86275 12.25 5.18627C11.3537 3.87255 9.82301 3 7.95997 3C4.69713 3 2.25 5.45098 2.25 8.92157C2.25 13.098 5.84517 17.2059 11.5249 20.7353C11.7364 20.8627 12.0385 21 12.25 21ZM12.25 19.3431C12.2097 19.3431 12.1392 19.2941 12.0486 19.2255C7.82905 16.5 3.87135 12.5686 3.87135 8.92157C3.87135 6.31373 5.60347 4.57843 7.93983 4.57843C9.83308 4.57843 10.9207 5.72549 11.5652 6.70588C11.8371 7.09804 12.0083 7.20588 12.25 7.20588C12.4917 7.20588 12.6427 7.08824 12.9348 6.70588C13.6297 5.7451 14.677 4.57843 16.5602 4.57843C18.8965 4.57843 20.6287 6.31373 20.6287 8.92157C20.6287 12.5686 16.6709 16.5 12.4615 19.2255C12.3608 19.2941 12.2903 19.3431 12.25 19.3431Z" fill="#1A1A1A"/>
</svg>
