<svg width="25" height="24" viewBox="0 0 25 24" fill="none" xmlns="http://www.w3.org/2000/svg">
<path fill-rule="evenodd" clip-rule="evenodd" d="M13.206 12.5702C14.9944 12.1407 15.8271 14.3482 14.0339 14.805C12.2032 15.2708 11.2651 13.0354 13.206 12.5702ZM12.3369 21.9896L12.3714 21.9611C12.5863 22.0325 13.0214 23.4433 14.5677 23.8607C16.5855 24.4058 18.9191 23.3011 20.1356 21.4161C20.4842 20.8752 21.5724 18.9393 20.6488 18.5564C19.8409 18.2218 19.5213 20.1021 19.0105 20.8673C18.4622 21.6883 17.5108 22.3247 16.5588 22.5486C13.3149 23.312 12.9682 20.5098 12.9978 18.0355C14.6155 17.5509 16.3664 15.4626 16.2599 13.6985C16.1279 11.5145 13.0837 10.8418 11.3492 11.1836C9.06276 11.6349 7.77065 13.1885 8.94656 15.5013C10.272 18.1051 11.7111 17.5957 11.7765 18.3531C12.0125 21.0755 10.4196 24.0985 7.05408 22.087C6.24371 21.6024 5.68995 20.8891 5.28628 20.0422C5.13619 19.7276 4.90318 18.822 4.77064 18.6798C4.38997 18.2739 3.71335 18.5842 3.73513 19.2013C3.79263 20.8304 5.58101 22.917 7.04864 23.5226C9.07002 24.3574 11.3244 24.1578 12.3369 21.9902V21.9896ZM16.1776 9.56837C15.7122 8.48729 15.2619 7.41166 15.9845 6.25072C16.6502 5.18175 17.9254 5.14363 18.8683 5.87746C20.8425 7.41226 20.8401 11.2278 18.3478 11.0614C19.7138 10.6174 20.1247 9.17756 19.482 7.91681L18.0095 9.03237L18.4991 7.137C16.764 6.70626 16.137 8.0989 16.1776 9.56776V9.56837ZM16.9462 4.12789C12.4253 5.04744 14.5362 13.1232 18.9821 12.3349C23.4848 11.5363 21.4192 3.21802 16.9462 4.12789ZM7.22778 8.87447L5.80796 7.7698C5.39098 8.20719 5.35527 9.03902 5.52957 9.59741C5.73716 10.2623 6.00163 10.4407 6.51606 10.8031C4.00566 10.5956 4.37121 7.36023 5.82188 5.86657C6.56629 5.10068 7.76459 4.80183 8.64698 5.5417C9.59534 6.33542 9.36536 7.6724 9.12328 8.70266C8.72687 8.04324 8.82613 7.21444 7.626 6.96338C6.29031 6.68449 6.88765 7.22835 7.22778 8.87447ZM7.01293 3.85384C2.31653 4.63062 2.3365 12.8376 7.02806 12.0754C11.7075 11.3143 11.6863 3.0813 7.01293 3.85384ZM15.5209 0.0280265C14.8467 0.136921 14.7511 0.931243 15.1838 1.21921C15.6226 1.5108 16.7319 0.89555 17.8994 2.63241C18.1862 3.05952 18.3073 3.73345 18.8949 3.66025C20.5066 3.4594 17.9472 -0.362783 15.5209 0.0280265ZM7.88443 0.0425457C6.8471 0.191973 5.99618 0.836263 5.39582 1.66991C3.93122 3.70805 5.39885 4.00508 5.81402 3.38923C6.38109 2.54832 6.68007 1.6197 7.86203 1.35956C8.35225 1.25188 9.24311 1.50838 9.19954 0.639649C9.16322 -0.0754229 8.40248 -0.0318653 7.88382 0.0431507L7.88443 0.0425457Z" fill="#222327"/>
</svg>
